<svg width="57" height="52" viewBox="0 0 57 52" fill="none" xmlns="http://www.w3.org/2000/svg">
<rect y="-0.0012207" width="57" height="52" rx="11" fill="white"/>
<rect x="0.5" y="0.498779" width="56" height="51" rx="10.5" stroke="black" stroke-opacity="0.07"/>
<path d="M25.5099 15.9988H32.49C32.7225 15.9987 32.9007 15.9987 33.0565 16.0139C34.1643 16.1223 35.0711 16.7884 35.4556 17.6856H22.5443C22.9288 16.7884 23.8355 16.1223 24.9434 16.0139C25.0992 15.9987 25.2774 15.9987 25.5099 15.9988Z" fill="#105EFE"/>
<path d="M23.3105 18.7219C21.9199 18.7219 20.7796 19.5616 20.3991 20.6757C20.3912 20.6989 20.3836 20.7223 20.3763 20.7457C20.7744 20.6251 21.1888 20.5464 21.6083 20.4926C22.6886 20.3541 24.054 20.3542 25.64 20.3542L25.7585 20.3543L32.5321 20.3542C34.1181 20.3542 35.4835 20.3541 36.5639 20.4926C36.9833 20.5464 37.3977 20.6251 37.7958 20.7457C37.7886 20.7223 37.781 20.6989 37.773 20.6757C37.3925 19.5616 36.2522 18.7219 34.8616 18.7219H23.3105Z" fill="#105EFE"/>
<path fill-rule="evenodd" clip-rule="evenodd" d="M25.6724 21.5408H32.3276C35.7024 21.5408 37.3898 21.5408 38.3377 22.5277C39.2855 23.5145 39.0625 25.0391 38.6165 28.0883L38.1935 30.9799C37.8437 33.3712 37.6689 34.5668 36.7717 35.2828C35.8745 35.9988 34.5512 35.9988 31.9046 35.9988H26.0954C23.4488 35.9988 22.1255 35.9988 21.2283 35.2828C20.3311 34.5668 20.1563 33.3712 19.8065 30.9799L19.3835 28.0883C18.9375 25.0391 18.7145 23.5145 19.6623 22.5277C20.6102 21.5408 22.2976 21.5408 25.6724 21.5408ZM25 31.9989C25 31.5847 25.3731 31.2489 25.8333 31.2489H32.1667C32.6269 31.2489 33 31.5847 33 31.9989C33 32.4131 32.6269 32.7489 32.1667 32.7489H25.8333C25.3731 32.7489 25 32.4131 25 31.9989Z" fill="#105EFE"/>
</svg>
