<svg width="56" height="80" viewBox="0 0 56 80" fill="none" xmlns="http://www.w3.org/2000/svg">
<path d="M30.4408 35.3461L27.0047 46.006L24.8119 45.2992L27.0061 38.4921C26.8577 38.5003 26.6566 38.4635 26.4028 38.3817L24.6211 37.8073L25.2052 35.9952L26.8042 36.5106C27.0682 36.5957 27.2989 36.558 27.4963 36.3975C27.7072 36.2301 27.8617 35.9941 27.9598 35.6895L28.2936 34.654L30.4408 35.3461Z" fill="#1A1C20"/>
<rect x="0.321565" y="-0.220014" width="2.58418" height="2.58418" transform="matrix(0.78133 0.241616 0.297116 -0.979486 17.7908 21.0637)" fill="white" stroke="#70F9E7" stroke-width="0.596349"/>
<path d="M20.6126 20.7878L44.6299 28.2149" stroke="#70F9E7" stroke-width="0.795132"/>
<rect x="0.321565" y="-0.220014" width="2.58418" height="2.58418" transform="matrix(0.78133 0.241616 0.297116 -0.979486 44.2932 29.259)" fill="white" stroke="#70F9E7" stroke-width="0.596349"/>
<path d="M18.8976 21.9612L10.4785 49.7158" stroke="#70F9E7" stroke-width="0.795132"/>
<path d="M45.4 30.1567L36.9809 57.9114" stroke="#70F9E7" stroke-width="0.795132"/>
<rect x="0.321565" y="-0.220014" width="2.58418" height="2.58418" transform="matrix(0.78133 0.241616 0.297116 -0.979486 8.42676 51.9336)" fill="white" stroke="#70F9E7" stroke-width="0.596349"/>
<path d="M11.2486 51.6575L35.2659 59.0845" stroke="#70F9E7" stroke-width="0.795132"/>
<rect x="0.321565" y="-0.220014" width="2.58418" height="2.58418" transform="matrix(0.78133 0.241616 0.297116 -0.979486 34.9291 60.1289)" fill="white" stroke="#70F9E7" stroke-width="0.596349"/>
<rect width="36.5017" height="33.1199" transform="matrix(0.78133 0.241616 -0.297116 0.979486 18.5995 19.3071)" fill="#70F9E7" fill-opacity="0.24"/>
</svg>
