<svg width="36" height="36" viewBox="0 0 36 36" fill="none" xmlns="http://www.w3.org/2000/svg">
<rect width="36" height="36" rx="11" fill="white"/>
<path d="M19.8324 27.2476C22.9583 26.621 27 24.3723 27 18.5575C27 13.2659 23.1267 9.74222 20.3415 8.12313C19.7235 7.76386 19 8.23635 19 8.95121V10.7797C19 12.2215 18.3938 14.8534 16.7093 15.9481C15.8493 16.507 14.9205 15.6705 14.816 14.6502L14.7302 13.8123C14.6304 12.8383 13.6384 12.247 12.86 12.8409C11.4615 13.9077 10 15.7759 10 18.5575C10 25.6686 15.2889 27.4464 17.9333 27.4464C18.0871 27.4464 18.2488 27.4417 18.4171 27.4321C17.1113 27.3205 15 26.5103 15 23.8905C15 21.8412 16.4951 20.4548 17.631 19.7809C17.9365 19.5996 18.2941 19.835 18.2941 20.1902V20.7794C18.2941 21.2303 18.4685 21.9352 18.8836 22.4177C19.3534 22.9637 20.0429 22.3917 20.0985 21.6736C20.1161 21.4471 20.3439 21.3027 20.5401 21.4174C21.1814 21.7921 22 22.5928 22 23.8905C22 25.9385 20.871 26.8806 19.8324 27.2476Z" fill="#FF6D0E"/>
</svg>
