<svg width="36" height="36" viewBox="0 0 36 36" fill="none" xmlns="http://www.w3.org/2000/svg">
<rect opacity="0.13" width="36" height="36" rx="11" fill="#FF6D0E"/>
<path d="M8.75458 20.716L9.27222 22.6479C9.87647 24.9029 10.1786 26.0305 10.8635 26.7618C11.4043 27.3392 12.1042 27.7433 12.8747 27.9229C13.8504 28.1504 14.978 27.8483 17.2331 27.244C19.4881 26.6398 20.6157 26.3377 21.347 25.6528C21.4077 25.5959 21.4664 25.5373 21.5233 25.477C21.1891 25.449 20.852 25.3952 20.5094 25.3271C19.8133 25.1887 18.9862 24.967 18.008 24.7049L17.9012 24.6763L17.8764 24.6697C16.8121 24.3845 15.9228 24.1457 15.2128 23.8892C14.4661 23.6195 13.7876 23.287 13.2115 22.7474C12.4175 22.0038 11.8619 21.0414 11.6149 19.982C11.4357 19.2133 11.4869 18.4594 11.6267 17.6779C11.7606 16.929 12.0011 16.0315 12.2893 14.9561L12.2893 14.9561L12.8237 12.9617L12.8424 12.8916C10.9219 13.409 9.91101 13.7151 9.23687 14.3465C8.65945 14.8873 8.25537 15.5871 8.07573 16.3576C7.84821 17.3334 8.15033 18.4609 8.75458 20.716Z" fill="#FF6D0E"/>
<path fill-rule="evenodd" clip-rule="evenodd" d="M26.8293 16.7154L26.3116 18.6473C25.7074 20.9024 25.4052 22.0299 24.7203 22.7612C24.1795 23.3386 23.4796 23.7427 22.7092 23.9223C22.6129 23.9448 22.5152 23.9621 22.415 23.9744C21.4999 24.0873 20.3834 23.7881 18.3508 23.2435C16.0957 22.6392 14.9682 22.3371 14.2369 21.6522C13.6595 21.1114 13.2554 20.4115 13.0757 19.641C12.8482 18.6652 13.1503 17.5377 13.7546 15.2826L14.2722 13.3508C14.3591 13.0265 14.4398 12.7254 14.5162 12.4456C14.9713 10.7796 15.2771 9.86298 15.8635 9.23687C16.4043 8.65945 17.1042 8.25537 17.8747 8.07573C18.8504 7.84821 19.978 8.15033 22.2331 8.75458C24.4881 9.35883 25.6157 9.66095 26.347 10.3459C26.9244 10.8867 27.3285 11.5866 27.5081 12.357C27.7356 13.3328 27.4335 14.4603 26.8293 16.7154ZM17.0524 15.8059C17.1596 15.4058 17.5709 15.1683 17.971 15.2756L22.8006 16.5697C23.2007 16.6769 23.4381 17.0881 23.3309 17.4882C23.2237 17.8883 22.8125 18.1257 22.4124 18.0185L17.5827 16.7244C17.1826 16.6172 16.9452 16.206 17.0524 15.8059ZM16.2756 18.7033C16.3828 18.3032 16.794 18.0658 17.1941 18.173L20.0919 18.9495C20.492 19.0567 20.7294 19.4679 20.6222 19.868C20.515 20.2681 20.1038 20.5056 19.7037 20.3984L16.8059 19.6219C16.4058 19.5147 16.1683 19.1034 16.2756 18.7033Z" fill="#FF6D0E"/>
</svg>
