<svg width="36" height="36" viewBox="0 0 36 36" fill="none" xmlns="http://www.w3.org/2000/svg">
<rect opacity="0.13" width="36" height="36" rx="11" fill="#FF6D0E"/>
<path d="M19.8324 27.8013C22.9583 27.1747 27 24.926 27 19.1112C27 13.8196 23.1267 10.2959 20.3415 8.67685C19.7235 8.31757 19 8.79006 19 9.50492V11.3334C19 12.7753 18.3938 15.4071 16.7093 16.5018C15.8493 17.0607 14.9205 16.2242 14.816 15.2039L14.7302 14.366C14.6304 13.392 13.6384 12.8008 12.86 13.3946C11.4615 14.4614 10 16.3296 10 19.1112C10 26.2223 15.2889 28.0001 17.9333 28.0001C18.0871 28.0001 18.2488 27.9955 18.4171 27.9858C17.1113 27.8742 15 27.064 15 24.4442C15 22.3949 16.4951 21.0085 17.631 20.3346C17.9365 20.1533 18.2941 20.3887 18.2941 20.7439V21.3331C18.2941 21.784 18.4685 22.4889 18.8836 22.9714C19.3534 23.5174 20.0429 22.9454 20.0985 22.2273C20.1161 22.0008 20.3439 21.8564 20.5401 21.9711C21.1814 22.3459 22 23.1465 22 24.4442C22 26.4922 20.871 27.4343 19.8324 27.8013Z" fill="#FF6D0E"/>
</svg>
