<svg width="57" height="52" viewBox="0 0 57 52" fill="none" xmlns="http://www.w3.org/2000/svg">
<rect y="-0.00488281" width="57" height="52" rx="11" fill="white"/>
<rect x="0.5" y="0.495117" width="56" height="51" rx="10.5" stroke="black" stroke-opacity="0.07"/>
<path d="M25.1069 32.4125L32.4868 25.3463C32.9348 24.9173 33.1589 24.7028 33.2759 24.47C33.4856 24.053 33.4856 23.5673 33.2759 23.1504C33.1589 22.9176 32.9348 22.7031 32.4868 22.274C32.0387 21.845 31.8147 21.6305 31.5715 21.5184C31.1361 21.3176 30.6288 21.3176 30.1934 21.5184C29.9502 21.6305 29.7262 21.845 29.2781 22.274L21.9518 29.289C20.853 30.3411 20.3037 30.8671 20.1118 31.4787C19.9627 31.9542 19.9627 32.4611 20.1118 32.9366C20.3037 33.5482 20.853 34.0742 21.9518 35.1263C23.0505 36.1783 23.5999 36.7044 24.2387 36.888C24.7353 37.0308 25.2647 37.0308 25.7612 36.888C26.4 36.7044 26.9494 36.1783 28.0482 35.1263L35.4815 28.0089C36.5258 27.0089 37.048 26.5089 37.3617 25.9888C38.2128 24.5773 38.2128 22.8382 37.3617 21.4267C37.048 20.9066 36.5258 20.4066 35.4815 19.4066C34.4371 18.4066 33.9149 17.9066 33.3717 17.6063C31.8975 16.7914 30.0813 16.7914 28.6071 17.6063C28.0639 17.9066 27.5417 18.4066 26.4973 19.4066L20.5079 25.1415" stroke="#1C274C" stroke-width="1.5" stroke-linecap="round"/>
</svg>
