<svg width="57" height="50" viewBox="0 0 57 50" fill="none" xmlns="http://www.w3.org/2000/svg">
<rect width="57" height="50" rx="12" fill="#0F5EFF"/>
<rect x="7" y="32" width="43" height="15" rx="7.5" fill="#397AFF"/>
<path d="M16.937 22.4203H21.9135L24.4203 25.6327L26.8714 28.4923L31.495 34.3043H26.0358L22.8419 30.3863L21.2264 28.0652L16.937 22.4203ZM18.9611 32.4103C16.51 32.4103 14.3065 31.8533 12.3505 30.7391C10.3946 29.625 8.84722 28.0095 7.70833 25.8927C6.56944 23.7758 6 21.2195 6 18.2237C6 15.2032 6.56944 12.6345 7.70833 10.5177C8.84722 8.38844 10.3946 6.77295 12.3505 5.6712C14.3065 4.55707 16.51 4 18.9611 4C21.4121 4 23.6156 4.55707 25.5716 5.6712C27.5275 6.77295 29.0687 8.38844 30.1952 10.5177C31.3341 12.6345 31.9035 15.2032 31.9035 18.2237C31.9035 21.2319 31.3341 23.7944 30.1952 25.9112C29.0687 28.0281 27.5275 29.6436 25.5716 30.7577C23.6156 31.8594 21.4121 32.4103 18.9611 32.4103ZM18.9611 27.2482C20.3847 27.2482 21.6226 26.9016 22.6748 26.2083C23.7271 25.5151 24.5379 24.5 25.1073 23.163C25.6892 21.8137 25.9801 20.1673 25.9801 18.2237C25.9801 16.2678 25.6892 14.6152 25.1073 13.2659C24.5379 11.9165 23.7271 10.8952 22.6748 10.202C21.6226 9.50876 20.3847 9.16214 18.9611 9.16214C17.5498 9.16214 16.3181 9.50876 15.2659 10.202C14.2136 10.8952 13.3904 11.9165 12.7962 13.2659C12.2144 14.6152 11.9235 16.2678 11.9235 18.2237C11.9235 20.1673 12.2144 21.8137 12.7962 23.163C13.3904 24.5 14.2136 25.5151 15.2659 26.2083C16.3181 26.9016 17.5498 27.2482 18.9611 27.2482Z" fill="white"/>
<path d="M34.32 33.9858L33.4781 30.6553L40.2446 15.9783L40.2082 15.8343L30.6849 18.2416L29.5563 13.777L45.7766 9.67676L46.7004 13.3313L40.464 27.5295L40.5004 27.6735L50.0778 25.2525L51.2064 29.7172L34.32 33.9858Z" fill="white"/>
<path d="M21.2611 44V37.4521H23.3792C23.845 37.4521 24.2332 37.5415 24.5438 37.7202C24.8543 37.896 25.0887 38.1377 25.2469 38.4453C25.408 38.75 25.4886 39.0928 25.4886 39.4736C25.4886 39.8545 25.4095 40.1987 25.2513 40.5063C25.0931 40.811 24.8572 41.0527 24.5438 41.2314C24.2332 41.4102 23.848 41.4995 23.388 41.4995H21.7269V40.9634H23.3704C23.7132 40.9634 23.9974 40.8989 24.223 40.77C24.4486 40.6411 24.617 40.4639 24.7283 40.2383C24.8426 40.0127 24.8997 39.7578 24.8997 39.4736C24.8997 39.1865 24.8426 38.9316 24.7283 38.709C24.617 38.4863 24.4471 38.312 24.2186 38.186C23.993 38.0571 23.7073 37.9927 23.3616 37.9927H21.8587V44H21.2611ZM26.4336 44V37.4521H28.5518C29.0176 37.4521 29.4058 37.5371 29.7163 37.707C30.0269 37.874 30.2612 38.1055 30.4194 38.4014C30.5806 38.6973 30.6611 39.0356 30.6611 39.4165C30.6611 39.7974 30.582 40.1343 30.4238 40.4272C30.2656 40.7173 30.0298 40.9443 29.7163 41.1084C29.4058 41.2725 29.0205 41.3545 28.5605 41.3545H26.7632V40.8096H28.543C28.8857 40.8096 29.1699 40.7524 29.3955 40.6382C29.6211 40.5239 29.7896 40.3628 29.9009 40.1548C30.0151 39.9468 30.0723 39.7007 30.0723 39.4165C30.0723 39.1294 30.0151 38.8789 29.9009 38.665C29.7866 38.4512 29.6167 38.2856 29.3911 38.1685C29.1655 38.0513 28.8799 37.9927 28.5342 37.9927H27.0312V44H26.4336ZM30.2393 44L28.6484 41.0425H29.3252L30.9336 44H30.2393ZM34.2033 44.0879C33.6525 44.0879 33.1633 43.9502 32.7355 43.6748C32.3078 43.3994 31.9723 43.0098 31.7292 42.5059C31.4889 42.002 31.3688 41.4102 31.3688 40.7305C31.3688 40.0479 31.4904 39.4546 31.7336 38.9507C31.9767 38.4438 32.3107 38.0527 32.7355 37.7773C33.1633 37.502 33.6525 37.3643 34.2033 37.3643C34.7541 37.3643 35.2419 37.502 35.6667 37.7773C36.0915 38.0527 36.424 38.4438 36.6642 38.9507C36.9074 39.4546 37.029 40.0479 37.029 40.7305C37.029 41.4102 36.9074 42.002 36.6642 42.5059C36.424 43.0098 36.0915 43.3994 35.6667 43.6748C35.2419 43.9502 34.7541 44.0879 34.2033 44.0879ZM34.2033 43.5298C34.631 43.5298 35.0148 43.4185 35.3547 43.1958C35.6945 42.9731 35.9626 42.6538 36.1589 42.2378C36.3552 41.8188 36.4533 41.3164 36.4533 40.7305C36.4533 40.1416 36.3552 39.6377 36.1589 39.2188C35.9626 38.7998 35.6945 38.479 35.3547 38.2563C35.0148 38.0337 34.631 37.9224 34.2033 37.9224C33.7756 37.9224 33.3903 38.0337 33.0475 38.2563C32.7077 38.479 32.4382 38.7998 32.2389 39.2188C32.0427 39.6377 31.9445 40.1416 31.9445 40.7305C31.9445 41.3135 32.0427 41.8145 32.2389 42.2334C32.4352 42.6523 32.7033 42.9731 33.0431 43.1958C33.3859 43.4185 33.7726 43.5298 34.2033 43.5298Z" fill="white"/>
</svg>
