<svg width="57" height="52" viewBox="0 0 57 52" fill="none" xmlns="http://www.w3.org/2000/svg">
<rect y="-0.0012207" width="57" height="52" rx="11" fill="white"/>
<rect x="0.5" y="0.498779" width="56" height="51" rx="10.5" stroke="black" stroke-opacity="0.07"/>
<path fill-rule="evenodd" clip-rule="evenodd" d="M24.245 15.9988H33.755C34.9139 15.9988 35.4933 15.9988 35.9606 16.1614C36.8468 16.4697 37.5425 17.186 37.842 18.0982C38 18.5793 38 19.1758 38 20.3688V34.373C38 35.2312 37.015 35.6866 36.3919 35.1164C36.0258 34.7814 35.4742 34.7814 35.1081 35.1164L34.625 35.5585C33.9834 36.1456 33.0166 36.1456 32.375 35.5585C31.7334 34.9714 30.7666 34.9714 30.125 35.5585C29.4834 36.1456 28.5166 36.1456 27.875 35.5585C27.2334 34.9714 26.2666 34.9714 25.625 35.5585C24.9834 36.1456 24.0166 36.1456 23.375 35.5585L22.8919 35.1164C22.5258 34.7814 21.9742 34.7814 21.6081 35.1164C20.985 35.6866 20 35.2312 20 34.373V20.3688C20 19.1758 20 18.5793 20.158 18.0982C20.4575 17.186 21.1532 16.4697 22.0394 16.1614C22.5067 15.9988 23.0861 15.9988 24.245 15.9988ZM32.0595 22.4983C32.3353 22.1893 32.3085 21.7152 31.9995 21.4393C31.6905 21.1635 31.2164 21.1903 30.9405 21.4993L27.9286 24.8727L27.0595 23.8993C26.7836 23.5903 26.3095 23.5635 26.0005 23.8393C25.6915 24.1152 25.6647 24.5893 25.9405 24.8983L27.3691 26.4983C27.5114 26.6577 27.7149 26.7488 27.9286 26.7488C28.1422 26.7488 28.3457 26.6577 28.488 26.4983L32.0595 22.4983ZM24.5 28.7488C24.0858 28.7488 23.75 29.0846 23.75 29.4988C23.75 29.913 24.0858 30.2488 24.5 30.2488H33.5C33.9142 30.2488 34.25 29.913 34.25 29.4988C34.25 29.0846 33.9142 28.7488 33.5 28.7488H24.5Z" fill="#105EFE"/>
</svg>
