<svg width="57" height="52" viewBox="0 0 57 52" fill="none" xmlns="http://www.w3.org/2000/svg">
<rect y="-0.00488281" width="57" height="52" rx="11" fill="white"/>
<rect x="0.5" y="0.495117" width="56" height="51" rx="10.5" stroke="black" stroke-opacity="0.07"/>
<path d="M10.57 32.9944L13.5 23.9944H14.83L11.89 32.9944H10.57ZM14.3545 23.9944L15.9045 23.9844L17.1945 29.1044L18.5645 23.9944H19.9145L21.2445 29.1044L22.5645 23.9944H24.0845L22.1445 30.9944H20.4145L19.2045 26.3444L18.0245 30.9944H16.2945L14.3545 23.9944ZM23.7712 23.9944L25.3212 23.9844L26.6112 29.1044L27.9812 23.9944H29.3312L30.6612 29.1044L31.9813 23.9944H33.5013L31.5613 30.9944H29.8312L28.6212 26.3444L27.4412 30.9944H25.7112L23.7712 23.9944ZM33.188 23.9944L34.738 23.9844L36.028 29.1044L37.398 23.9944H38.748L40.078 29.1044L41.398 23.9944H42.918L40.978 30.9944H39.248L38.038 26.3444L36.858 30.9944H35.128L33.188 23.9944ZM41.7821 32.9944L44.7121 23.9944H46.0421L43.1021 32.9944H41.7821Z" fill="#FD4E12"/>
</svg>
