<svg width="340" height="218" viewBox="0 0 340 218" fill="none" xmlns="http://www.w3.org/2000/svg">
<rect width="340" height="218" rx="39" fill="#EDEDED" fill-opacity="0.37"/>
<path d="M160.634 115.567V91.567L179.284 80.8003C189.617 74.8336 208.117 89.5503 200.35 103.017" stroke="#1D2A33" stroke-opacity="0.17" stroke-width="0.5" stroke-linejoin="round"/>
<path d="M160.634 103.9L181.417 91.9004L200.067 102.667C210.4 108.634 206.9 132.017 191.35 132.017" stroke="#1D2A33" stroke-opacity="0.17" stroke-width="0.5" stroke-linejoin="round"/>
<path d="M170.733 98.0664L191.517 110.066V131.616C191.517 143.55 169.517 152.216 161.75 138.75" stroke="#1D2A33" stroke-opacity="0.17" stroke-width="0.5" stroke-linejoin="round"/>
<path d="M180.833 104.333V127.9L162.183 138.666C151.85 144.633 133.35 129.916 141.117 116.45" stroke="#1D2A33" stroke-opacity="0.17" stroke-width="0.5" stroke-linejoin="round"/>
<path d="M180.834 115.567L160.05 127.567L141.4 116.8C131.05 110.817 134.55 87.4502 150.1 87.4502" stroke="#1D2A33" stroke-opacity="0.17" stroke-width="0.5" stroke-linejoin="round"/>
<path d="M170.734 121.4L149.95 109.4V87.8496C149.95 75.9163 171.95 67.2496 179.717 80.7163" stroke="#1D2A33" stroke-opacity="0.17" stroke-width="0.5" stroke-linejoin="round"/>
</svg>
