<svg width="57" height="52" viewBox="0 0 57 52" fill="none" xmlns="http://www.w3.org/2000/svg">
<rect width="57" height="52" rx="11" fill="white"/>
<rect x="0.5" y="0.5" width="56" height="51" rx="10.5" stroke="black" stroke-opacity="0.07"/>
<path fill-rule="evenodd" clip-rule="evenodd" d="M30.0867 36.3877L30.6288 35.4718C31.0492 34.7614 31.2595 34.4062 31.5972 34.2098C31.9349 34.0134 32.36 34.0061 33.2104 33.9915C34.4658 33.9698 35.2531 33.8929 35.9134 33.6194C37.1386 33.1119 38.1119 32.1386 38.6194 30.9134C39 29.9946 39 28.8297 39 26.5V25.5C39 22.2266 39 20.5899 38.2632 19.3875C37.8509 18.7147 37.2853 18.1491 36.6125 17.7368C35.4101 17 33.7734 17 30.5 17H27.5C24.2266 17 22.5899 17 21.3875 17.7368C20.7147 18.1491 20.1491 18.7147 19.7368 19.3875C19 20.5899 19 22.2266 19 25.5V26.5C19 28.8297 19 29.9946 19.3806 30.9134C19.8881 32.1386 20.8614 33.1119 22.0866 33.6194C22.7469 33.8929 23.5342 33.9698 24.7896 33.9915C25.6399 34.0061 26.0651 34.0134 26.4028 34.2098C26.7405 34.4063 26.9507 34.7614 27.3712 35.4718L27.9133 36.3877C28.3965 37.204 29.6035 37.204 30.0867 36.3877ZM24.5 24.7148C24.5 26.4673 26.6633 28.3304 27.9901 29.3082C28.4442 29.6429 28.6713 29.8103 29 29.8103C29.3287 29.8103 29.5558 29.643 30.0099 29.3082C31.3367 28.3304 33.5 26.4674 33.5 24.7147C33.5 22.0376 31.0249 21.0381 29 23.1061C26.9751 21.0381 24.5 22.0376 24.5 24.7148Z" fill="#FD2511"/>
</svg>
