<svg width="58" height="58" viewBox="0 0 58 58" fill="none" xmlns="http://www.w3.org/2000/svg">
<mask id="mask0_2076_4929" style="mask-type:alpha" maskUnits="userSpaceOnUse" x="0" y="0" width="58" height="58">
<circle cx="29" cy="29" r="29" fill="#F4F4F4"/>
</mask>
<g mask="url(#mask0_2076_4929)">
<circle cx="29" cy="29" r="29" fill="#105EFE"/>
</g>
<rect x="11.4345" y="34.7227" width="34.8945" height="12.1725" rx="6.08626" fill="#397AFF"/>
<path d="M19.4984 26.9481H23.5368L25.5711 29.555L27.5601 31.8755L31.3122 36.592H26.882L24.2902 33.4125L22.9793 31.5289L19.4984 26.9481ZM21.1409 35.055C19.1518 35.055 17.3637 34.6029 15.7765 33.6988C14.1892 32.7947 12.9335 31.4837 12.0093 29.7659C11.0851 28.0481 10.623 25.9736 10.623 23.5426C10.623 21.0914 11.0851 19.0069 12.0093 17.2891C12.9335 15.5612 14.1892 14.2502 15.7765 13.3562C17.3637 12.4521 19.1518 12 21.1409 12C23.1299 12 24.9181 12.4521 26.5053 13.3562C28.0925 14.2502 29.3432 15.5612 30.2574 17.2891C31.1816 19.0069 31.6437 21.0914 31.6437 23.5426C31.6437 25.9837 31.1816 28.0632 30.2574 29.781C29.3432 31.4988 28.0925 32.8098 26.5053 33.7139C24.9181 34.608 23.1299 35.055 21.1409 35.055ZM21.1409 30.8659C22.2961 30.8659 23.3007 30.5846 24.1546 30.0221C25.0085 29.4595 25.6665 28.6358 26.1286 27.5508C26.6008 26.4558 26.8368 25.1198 26.8368 23.5426C26.8368 21.9553 26.6008 20.6142 26.1286 19.5192C25.6665 18.4243 25.0085 17.5955 24.1546 17.0329C23.3007 16.4704 22.2961 16.1891 21.1409 16.1891C19.9957 16.1891 18.9961 16.4704 18.1422 17.0329C17.2883 17.5955 16.6203 18.4243 16.1381 19.5192C15.666 20.6142 15.4299 21.9553 15.4299 23.5426C15.4299 25.1198 15.666 26.4558 16.1381 27.5508C16.6203 28.6358 17.2883 29.4595 18.1422 30.0221C18.9961 30.5846 19.9957 30.8659 21.1409 30.8659Z" fill="white"/>
<path d="M33.6047 36.3342L32.9215 33.6315L38.4126 21.7211L38.383 21.6043L30.6548 23.5578L29.739 19.9348L42.9017 16.6074L43.6514 19.5731L38.5906 31.0949L38.6201 31.2118L46.3922 29.2472L47.308 32.8702L33.6047 36.3342Z" fill="white"/>
<path d="M23.0074 43.7795V38.466H24.7262C25.1043 38.466 25.4193 38.5385 25.6713 38.6835C25.9233 38.8261 26.1135 39.0223 26.2419 39.2719C26.3726 39.5192 26.438 39.7973 26.438 40.1064C26.438 40.4155 26.3738 40.6948 26.2454 40.9444C26.1171 41.1917 25.9257 41.3878 25.6713 41.5329C25.4193 41.6779 25.1066 41.7504 24.7334 41.7504H23.3854V41.3153H24.7191C24.9973 41.3153 25.2279 41.263 25.411 41.1584C25.594 41.0538 25.7307 40.91 25.8211 40.7269C25.9138 40.5438 25.9601 40.337 25.9601 40.1064C25.9601 39.8734 25.9138 39.6666 25.8211 39.4859C25.7307 39.3052 25.5928 39.1637 25.4074 39.0615C25.2243 38.9569 24.9925 38.9046 24.712 38.9046H23.4924V43.7795H23.0074ZM27.2049 43.7795V38.466H28.9238C29.3018 38.466 29.6168 38.5349 29.8688 38.6728C30.1208 38.8083 30.311 38.9961 30.4394 39.2362C30.5701 39.4764 30.6355 39.751 30.6355 40.06C30.6355 40.3691 30.5713 40.6425 30.443 40.8802C30.3146 41.1156 30.1232 41.2999 29.8688 41.433C29.6168 41.5661 29.3042 41.6327 28.9309 41.6327H27.4723V41.1905H28.9166C29.1948 41.1905 29.4254 41.1441 29.6085 41.0514C29.7915 40.9587 29.9282 40.8279 30.0186 40.6591C30.1113 40.4903 30.1577 40.2906 30.1577 40.06C30.1577 39.827 30.1113 39.6238 30.0186 39.4502C29.9259 39.2767 29.788 39.1423 29.6049 39.0472C29.4218 38.9521 29.19 38.9046 28.9095 38.9046H27.6899V43.7795H27.2049ZM30.2932 43.7795L29.0022 41.3795H29.5514L30.8566 43.7795H30.2932ZM33.51 43.8509C33.063 43.8509 32.666 43.7391 32.3189 43.5156C31.9718 43.2922 31.6996 42.976 31.5022 42.567C31.3073 42.1581 31.2098 41.6779 31.2098 41.1263C31.2098 40.5724 31.3085 40.0909 31.5058 39.682C31.7031 39.2707 31.9742 38.9533 32.3189 38.7299C32.666 38.5064 33.063 38.3946 33.51 38.3946C33.957 38.3946 34.3528 38.5064 34.6975 38.7299C35.0423 38.9533 35.3121 39.2707 35.5071 39.682C35.7044 40.0909 35.803 40.5724 35.803 41.1263C35.803 41.6779 35.7044 42.1581 35.5071 42.567C35.3121 42.976 35.0423 43.2922 34.6975 43.5156C34.3528 43.7391 33.957 43.8509 33.51 43.8509ZM33.51 43.398C33.8571 43.398 34.1686 43.3076 34.4443 43.1269C34.7201 42.9462 34.9377 42.6871 35.0969 42.3495C35.2562 42.0095 35.3359 41.6018 35.3359 41.1263C35.3359 40.6484 35.2562 40.2395 35.0969 39.8996C34.9377 39.5596 34.7201 39.2992 34.4443 39.1186C34.1686 38.9379 33.8571 38.8475 33.51 38.8475C33.1629 38.8475 32.8503 38.9379 32.5721 39.1186C32.2963 39.2992 32.0776 39.5596 31.9159 39.8996C31.7566 40.2395 31.677 40.6484 31.677 41.1263C31.677 41.5994 31.7566 42.006 31.9159 42.3459C32.0752 42.6859 32.2927 42.9462 32.5685 43.1269C32.8467 43.3076 33.1605 43.398 33.51 43.398Z" fill="white"/>
</svg>
