<svg width="24" height="24" viewBox="0 0 24 24" fill="none" xmlns="http://www.w3.org/2000/svg">
<path d="M21.15 2.85L20.13 3.87C18.69 2.17 15.6 1 12 1C8.40001 1 5.31001 2.17 3.87001 3.87L2.85001 2.85C2.77951 2.7809 2.69014 2.73421 2.59315 2.71582C2.49616 2.69743 2.3959 2.70816 2.305 2.74665C2.2141 2.78515 2.13663 2.8497 2.08236 2.93215C2.02808 3.01461 1.99943 3.11129 2.00001 3.21V6.5C2.00001 6.78 2.22001 7 2.50001 7H5.79001C6.24001 7 6.46001 6.46 6.14001 6.15L4.93001 4.93C5.93001 3.64 8.63001 2.5 12 2.5C15.37 2.5 18.07 3.64 19.07 4.93L17.85 6.15C17.7809 6.2205 17.7342 6.30987 17.7158 6.40686C17.6974 6.50384 17.7082 6.60411 17.7467 6.69501C17.7852 6.7859 17.8497 6.86337 17.9322 6.91765C18.0146 6.97193 18.1113 7.00058 18.21 7H21.5C21.78 7 22 6.78 22 6.5V3.21C22.0006 3.11129 21.9719 3.01461 21.9177 2.93215C21.8634 2.8497 21.7859 2.78515 21.695 2.74665C21.6041 2.70816 21.5039 2.69743 21.4069 2.71582C21.3099 2.73421 21.2205 2.7809 21.15 2.85Z" fill="#105EFE"/>
<path d="M14.5 12.71C14.22 12.57 13.92 12.5 13.61 12.5H13V6.5C13 5.67 12.33 5 11.5 5C10.67 5 10 5.67 10 6.5V17.24L6.56003 16.52C6.32367 16.4704 6.07761 16.4986 5.85855 16.6002C5.63949 16.7019 5.45916 16.8717 5.34446 17.0842C5.22976 17.2967 5.18683 17.5407 5.22207 17.7796C5.25732 18.0185 5.36885 18.2396 5.54003 18.41L9.55003 22.42C9.92003 22.79 10.43 23 10.96 23H17.37C18.37 23 19.21 22.27 19.35 21.28L19.98 16.82C20.1 15.97 19.66 15.13 18.89 14.75L14.5 12.71Z" fill="#105EFE"/>
</svg>
