<svg width="57" height="52" viewBox="0 0 57 52" fill="none" xmlns="http://www.w3.org/2000/svg">
<rect y="-0.00488281" width="57" height="52" rx="11" fill="white"/>
<rect x="0.5" y="0.495117" width="56" height="51" rx="10.5" stroke="black" stroke-opacity="0.07"/>
<path d="M35.665 18.7122L17.935 25.5492C16.725 26.0352 16.732 26.7102 17.713 27.0112L22.265 28.4312L32.797 21.7862C33.295 21.4832 33.75 21.6462 33.376 21.9782L24.843 29.6792H24.841L24.843 29.6802L24.529 34.3722C24.989 34.3722 25.192 34.1612 25.45 33.9122L27.661 31.7622L32.26 35.1592C33.108 35.6262 33.717 35.3862 33.928 34.3742L36.947 20.1462C37.256 18.9072 36.474 18.3462 35.665 18.7122Z" fill="#10BFFE"/>
</svg>
