<svg width="66" height="52" viewBox="0 0 66 52" fill="none" xmlns="http://www.w3.org/2000/svg">
<rect width="66" height="52" rx="16" fill="white"/>
<path fill-rule="evenodd" clip-rule="evenodd" d="M26.375 15.625C26.7892 15.625 27.125 15.9608 27.125 16.375L27.125 36.375C27.125 36.7892 26.7892 37.125 26.375 37.125C25.9608 37.125 25.625 36.7892 25.625 36.375L25.625 16.375C25.625 15.9608 25.9608 15.625 26.375 15.625Z" fill="#1D2A33"/>
<path d="M30.375 21.875C30.375 20.9404 30.375 20.4731 30.576 20.125C30.7076 19.897 30.897 19.7076 31.125 19.576C31.4731 19.375 31.9404 19.375 32.875 19.375H41.875C42.8096 19.375 43.2769 19.375 43.625 19.576C43.853 19.7076 44.0424 19.897 44.174 20.125C44.375 20.4731 44.375 20.9404 44.375 21.875C44.375 22.8096 44.375 23.2769 44.174 23.625C44.0424 23.853 43.853 24.0424 43.625 24.174C43.2769 24.375 42.8096 24.375 41.875 24.375L32.875 24.375C31.9404 24.375 31.4731 24.375 31.125 24.174C30.897 24.0424 30.7076 23.853 30.576 23.625C30.375 23.2769 30.375 22.8096 30.375 21.875Z" fill="#1D2A33"/>
<path d="M30.375 30.875C30.375 29.9404 30.375 29.4731 30.576 29.125C30.7076 28.897 30.897 28.7076 31.125 28.576C31.4731 28.375 31.9404 28.375 32.875 28.375L38.875 28.375C39.8096 28.375 40.2769 28.375 40.625 28.576C40.853 28.7076 41.0424 28.897 41.174 29.125C41.375 29.4731 41.375 29.9404 41.375 30.875C41.375 31.8096 41.375 32.2769 41.174 32.625C41.0424 32.853 40.853 33.0424 40.625 33.174C40.2769 33.375 39.8096 33.375 38.875 33.375H32.875C31.9404 33.375 31.4731 33.375 31.125 33.174C30.897 33.0424 30.7076 32.853 30.576 32.625C30.375 32.2769 30.375 31.8096 30.375 30.875Z" fill="#1D2A33"/>
</svg>
