<svg width="66" height="52" viewBox="0 0 66 52" fill="none" xmlns="http://www.w3.org/2000/svg">
<rect width="66" height="52" rx="16" fill="white"/>
<path fill-rule="evenodd" clip-rule="evenodd" d="M40 15.625C39.5858 15.625 39.25 15.9608 39.25 16.375L39.25 36.375C39.25 36.7892 39.5858 37.125 40 37.125C40.4142 37.125 40.75 36.7892 40.75 36.375L40.75 16.375C40.75 15.9608 40.4142 15.625 40 15.625Z" fill="#1D2A33"/>
<path d="M36 21.875C36 20.9404 36 20.4731 35.799 20.125C35.6674 19.897 35.478 19.7076 35.25 19.576C34.9019 19.375 34.4346 19.375 33.5 19.375H24.5C23.5654 19.375 23.0981 19.375 22.75 19.576C22.522 19.7076 22.3326 19.897 22.201 20.125C22 20.4731 22 20.9404 22 21.875C22 22.8096 22 23.2769 22.201 23.625C22.3326 23.853 22.522 24.0424 22.75 24.174C23.0981 24.375 23.5654 24.375 24.5 24.375L33.5 24.375C34.4346 24.375 34.9019 24.375 35.25 24.174C35.478 24.0424 35.6674 23.853 35.799 23.625C36 23.2769 36 22.8096 36 21.875Z" fill="#1D2A33"/>
<path d="M36 30.875C36 29.9404 36 29.4731 35.799 29.125C35.6674 28.897 35.478 28.7076 35.25 28.576C34.9019 28.375 34.4346 28.375 33.5 28.375L27.5 28.375C26.5654 28.375 26.0981 28.375 25.75 28.576C25.522 28.7076 25.3326 28.897 25.201 29.125C25 29.4731 25 29.9404 25 30.875C25 31.8096 25 32.2769 25.201 32.625C25.3326 32.853 25.522 33.0424 25.75 33.174C26.0981 33.375 26.5654 33.375 27.5 33.375H33.5C34.4346 33.375 34.9019 33.375 35.25 33.174C35.478 33.0424 35.6674 32.853 35.799 32.625C36 32.2769 36 31.8096 36 30.875Z" fill="#1D2A33"/>
</svg>
