<svg width="340" height="218" viewBox="0 0 340 218" fill="none" xmlns="http://www.w3.org/2000/svg">
<rect width="340" height="218" rx="39" fill="#EDEDED" fill-opacity="0.37"/>
<path fill-rule="evenodd" clip-rule="evenodd" d="M170 133.166C158.608 133.166 152.912 133.166 149.373 129.627C145.833 126.088 145.833 120.392 145.833 109C145.833 97.6074 145.833 91.9113 149.373 88.3721C152.912 84.833 158.608 84.833 170 84.833C181.392 84.833 187.089 84.833 190.628 88.3721C194.167 91.9113 194.167 97.6074 194.167 109C194.167 120.392 194.167 126.088 190.628 129.627C187.089 133.166 181.392 133.166 170 133.166ZM162.146 95.7079C162.146 94.7069 161.335 93.8954 160.333 93.8954C159.332 93.8954 158.521 94.7069 158.521 95.7079L158.521 98.7288H155.5C154.499 98.7288 153.688 99.5403 153.688 100.541C153.688 101.542 154.499 102.354 155.5 102.354L158.521 102.354V105.375C158.521 106.376 159.332 107.187 160.333 107.187C161.335 107.187 162.146 106.376 162.146 105.375V102.354H165.167C166.168 102.354 166.979 101.542 166.979 100.541C166.979 99.5403 166.168 98.7288 165.167 98.7288H162.146V95.7079ZM174.833 98.7288C173.832 98.7288 173.021 99.5403 173.021 100.541C173.021 101.542 173.832 102.354 174.833 102.354H184.5C185.501 102.354 186.313 101.542 186.313 100.541C186.313 99.5403 185.501 98.7288 184.5 98.7288H174.833ZM174.833 113.229C173.832 113.229 173.021 114.04 173.021 115.041C173.021 116.042 173.832 116.854 174.833 116.854H184.5C185.501 116.854 186.313 116.042 186.313 115.041C186.313 114.04 185.501 113.229 184.5 113.229H174.833ZM157.99 113.76C157.282 113.052 156.135 113.052 155.427 113.76C154.719 114.468 154.719 115.615 155.427 116.323L157.77 118.666L155.427 121.01C154.719 121.718 154.719 122.865 155.427 123.573C156.135 124.281 157.282 124.281 157.99 123.573L160.334 121.23L162.677 123.573C163.385 124.281 164.532 124.281 165.24 123.573C165.948 122.865 165.948 121.718 165.24 121.01L162.897 118.666L165.24 116.323C165.948 115.615 165.948 114.468 165.24 113.76C164.532 113.052 163.385 113.052 162.677 113.76L160.334 116.103L157.99 113.76ZM174.833 120.479C173.832 120.479 173.021 121.29 173.021 122.291C173.021 123.292 173.832 124.104 174.833 124.104H184.5C185.501 124.104 186.313 123.292 186.313 122.291C186.313 121.29 185.501 120.479 184.5 120.479H174.833Z" fill="#105EFE"/>
</svg>
