<svg width="340" height="218" viewBox="0 0 340 218" fill="none" xmlns="http://www.w3.org/2000/svg">
<rect width="340" height="218" rx="39" fill="#EDEDED" fill-opacity="0.37"/>
<path d="M164.167 84.667C162.234 84.667 160.667 86.234 160.667 88.167V90.5003C160.667 92.4333 162.234 94.0003 164.167 94.0003H175.833C177.766 94.0003 179.333 92.4333 179.333 90.5003V88.167C179.333 86.234 177.766 84.667 175.833 84.667H164.167Z" fill="#105EFE"/>
<path fill-rule="evenodd" clip-rule="evenodd" d="M157.167 89.4191C154.232 89.5838 152.379 90.0515 151.05 91.3799C149 93.4301 149 96.7299 149 103.33V117.33C149 123.929 149 127.229 151.05 129.279C153.101 131.33 156.4 131.33 163 131.33H177C183.6 131.33 186.899 131.33 188.95 129.279C191 127.229 191 123.929 191 117.33V103.33C191 96.7299 191 93.4301 188.95 91.3799C187.621 90.0515 185.768 89.5838 182.833 89.4191V90.5003C182.833 94.3663 179.699 97.5003 175.833 97.5003H164.167C160.301 97.5003 157.167 94.3663 157.167 90.5003V89.4191ZM158.333 102.75C157.367 102.75 156.583 103.534 156.583 104.5C156.583 105.467 157.367 106.25 158.333 106.25H159.5C160.466 106.25 161.25 105.467 161.25 104.5C161.25 103.534 160.466 102.75 159.5 102.75H158.333ZM166.5 102.75C165.534 102.75 164.75 103.534 164.75 104.5C164.75 105.467 165.534 106.25 166.5 106.25H181.667C182.633 106.25 183.417 105.467 183.417 104.5C183.417 103.534 182.633 102.75 181.667 102.75H166.5ZM158.333 110.917C157.367 110.917 156.583 111.7 156.583 112.667C156.583 113.633 157.367 114.417 158.333 114.417H159.5C160.466 114.417 161.25 113.633 161.25 112.667C161.25 111.7 160.466 110.917 159.5 110.917H158.333ZM166.5 110.917C165.534 110.917 164.75 111.7 164.75 112.667C164.75 113.633 165.534 114.417 166.5 114.417H181.667C182.633 114.417 183.417 113.633 183.417 112.667C183.417 111.7 182.633 110.917 181.667 110.917H166.5ZM158.333 119.084C157.367 119.084 156.583 119.867 156.583 120.834C156.583 121.8 157.367 122.584 158.333 122.584H159.5C160.466 122.584 161.25 121.8 161.25 120.834C161.25 119.867 160.466 119.084 159.5 119.084H158.333ZM166.5 119.084C165.534 119.084 164.75 119.867 164.75 120.834C164.75 121.8 165.534 122.584 166.5 122.584H181.667C182.633 122.584 183.417 121.8 183.417 120.834C183.417 119.867 182.633 119.084 181.667 119.084H166.5Z" fill="#105EFE"/>
</svg>
