<svg width="57" height="52" viewBox="0 0 57 52" fill="none" xmlns="http://www.w3.org/2000/svg">
<rect y="-0.0012207" width="57" height="52" rx="11" fill="white"/>
<rect x="0.5" y="0.498779" width="56" height="51" rx="10.5" stroke="black" stroke-opacity="0.07"/>
<path fill-rule="evenodd" clip-rule="evenodd" d="M18 25.9988C18 21.2847 18 18.9277 19.4645 17.4632C20.9289 15.9988 23.286 15.9988 28 15.9988C32.714 15.9988 35.0711 15.9988 36.5355 17.4632C38 18.9277 38 21.2847 38 25.9988C38 30.7128 38 33.0698 36.5355 34.5343C35.0711 35.9988 32.714 35.9988 28 35.9988C23.286 35.9988 20.9289 35.9988 19.4645 34.5343C18 33.0698 18 30.7128 18 25.9988ZM33 27.2488C33.3126 27.2488 33.5925 27.4427 33.7022 27.7354C33.812 28.0282 33.7287 28.3583 33.4932 28.5638L30.0557 31.5638C29.7436 31.8362 29.2698 31.804 28.9974 31.4919C28.7251 31.1799 28.7573 30.7061 29.0694 30.4337L31 28.7488L23 28.7488C22.5858 28.7488 22.25 28.413 22.25 27.9988C22.25 27.5846 22.5858 27.2488 23 27.2488L33 27.2488ZM27.0026 20.5056C27.2749 20.8177 27.2427 21.2915 26.9307 21.5638L25 23.2488H33C33.4142 23.2488 33.75 23.5846 33.75 23.9988C33.75 24.413 33.4142 24.7488 33 24.7488H23C22.6874 24.7488 22.4075 24.5548 22.2978 24.2621C22.188 23.9694 22.2713 23.6393 22.5068 23.4337L25.9443 20.4337C26.2564 20.1614 26.7302 20.1935 27.0026 20.5056Z" fill="#105EFE"/>
</svg>
