<svg width="340" height="218" viewBox="0 0 340 218" fill="none" xmlns="http://www.w3.org/2000/svg">
<rect width="340" height="218" rx="39" fill="#EDEDED" fill-opacity="0.37"/>
<path d="M143.657 115.563L144.908 120.232C146.368 125.682 147.098 128.407 148.754 130.174C150.061 131.569 151.752 132.546 153.614 132.98C155.972 133.53 158.697 132.8 164.147 131.339C169.597 129.879 172.321 129.149 174.089 127.494C174.235 127.356 174.377 127.215 174.515 127.069C173.707 127.001 172.892 126.871 172.065 126.707C170.382 126.372 168.383 125.837 166.019 125.203L165.761 125.134L165.702 125.118C163.129 124.429 160.98 123.852 159.264 123.232C157.46 122.58 155.82 121.776 154.428 120.472C152.509 118.675 151.166 116.35 150.57 113.79C150.136 111.932 150.26 110.11 150.598 108.221C150.922 106.411 151.503 104.242 152.199 101.644L153.491 96.8238L153.536 96.6543C148.895 97.9046 146.452 98.6443 144.823 100.17C143.427 101.477 142.451 103.169 142.017 105.03C141.467 107.389 142.197 110.113 143.657 115.563Z" fill="#105EFE"/>
<path fill-rule="evenodd" clip-rule="evenodd" d="M187.337 105.895L186.086 110.564C184.626 116.014 183.896 118.739 182.241 120.506C180.934 121.901 179.242 122.878 177.38 123.312C177.148 123.366 176.911 123.408 176.669 123.438C174.458 123.711 171.76 122.988 166.848 121.671C161.398 120.211 158.673 119.481 156.906 117.826C155.51 116.519 154.534 114.827 154.1 112.965C153.55 110.607 154.28 107.882 155.74 102.433L156.991 97.764C157.201 96.9805 157.396 96.2527 157.581 95.5766C158.68 91.5503 159.419 89.3352 160.837 87.8221C162.144 86.4267 163.835 85.4502 165.697 85.016C168.055 84.4662 170.78 85.1963 176.23 86.6566C181.68 88.1168 184.404 88.847 186.172 90.5022C187.567 91.8092 188.544 93.5005 188.978 95.3625C189.528 97.7206 188.797 100.445 187.337 105.895ZM163.71 103.697C163.969 102.73 164.963 102.157 165.93 102.416L177.601 105.543C178.568 105.802 179.142 106.796 178.883 107.763C178.624 108.73 177.63 109.304 176.663 109.044L164.991 105.917C164.025 105.658 163.451 104.664 163.71 103.697ZM161.832 110.699C162.092 109.733 163.085 109.159 164.052 109.418L171.055 111.294C172.022 111.553 172.596 112.547 172.337 113.514C172.078 114.481 171.084 115.055 170.117 114.796L163.114 112.919C162.147 112.66 161.573 111.666 161.832 110.699Z" fill="#105EFE"/>
</svg>
