<svg width="36" height="36" viewBox="0 0 36 36" fill="none" xmlns="http://www.w3.org/2000/svg">
<rect width="36" height="36" rx="11" fill="white"/>
<path fill-rule="evenodd" clip-rule="evenodd" d="M15.5924 9.20027C15.3489 9.4078 15.2271 9.51158 15.0971 9.59874C14.799 9.79854 14.4642 9.93721 14.1121 10.0067C13.9585 10.037 13.799 10.0498 13.4801 10.0752C12.6787 10.1392 12.278 10.1712 11.9437 10.2892C11.1705 10.5623 10.5623 11.1705 10.2892 11.9437C10.1712 12.278 10.1392 12.6787 10.0752 13.4801C10.0498 13.799 10.037 13.9585 10.0067 14.1121C9.93721 14.4642 9.79854 14.799 9.59874 15.0971C9.51158 15.2271 9.40781 15.3489 9.20027 15.5924C8.67883 16.2043 8.4181 16.5102 8.26522 16.8301C7.91159 17.57 7.91159 18.43 8.26522 19.1699C8.41811 19.4898 8.67883 19.7957 9.20027 20.4076C9.40778 20.6511 9.51158 20.7729 9.59874 20.9029C9.79854 21.201 9.93721 21.5358 10.0067 21.8879C10.037 22.0415 10.0498 22.201 10.0752 22.5199C10.1392 23.3213 10.1712 23.722 10.2892 24.0563C10.5623 24.8295 11.1705 25.4377 11.9437 25.7108C12.278 25.8288 12.6787 25.8608 13.4801 25.9248C13.799 25.9502 13.9585 25.963 14.1121 25.9933C14.4642 26.0628 14.799 26.2015 15.0971 26.4013C15.2271 26.4884 15.3489 26.5922 15.5924 26.7997C16.2043 27.3212 16.5102 27.5819 16.8301 27.7348C17.57 28.0884 18.43 28.0884 19.1699 27.7348C19.4898 27.5819 19.7957 27.3212 20.4076 26.7997C20.6511 26.5922 20.7729 26.4884 20.9029 26.4013C21.201 26.2015 21.5358 26.0628 21.8879 25.9933C22.0415 25.963 22.201 25.9502 22.5199 25.9248C23.3213 25.8608 23.722 25.8288 24.0563 25.7108C24.8295 25.4377 25.4377 24.8295 25.7108 24.0563C25.8288 23.722 25.8608 23.3213 25.9248 22.5199C25.9502 22.201 25.963 22.0415 25.9933 21.8879C26.0628 21.5358 26.2015 21.201 26.4013 20.9029C26.4884 20.7729 26.5922 20.6511 26.7997 20.4076C27.3212 19.7957 27.5819 19.4898 27.7348 19.1699C28.0884 18.43 28.0884 17.57 27.7348 16.8301C27.5819 16.5102 27.3212 16.2043 26.7997 15.5924C26.5922 15.3489 26.4884 15.2271 26.4013 15.0971C26.2015 14.799 26.0628 14.4642 25.9933 14.1121C25.963 13.9585 25.9502 13.799 25.9248 13.4801C25.8608 12.6787 25.8288 12.278 25.7108 11.9437C25.4377 11.1705 24.8295 10.5623 24.0563 10.2892C23.722 10.1712 23.3213 10.1392 22.5199 10.0752C22.201 10.0498 22.0415 10.037 21.8879 10.0067C21.5358 9.93721 21.201 9.79854 20.9029 9.59874C20.7729 9.51158 20.6511 9.40781 20.4076 9.20027C19.7957 8.67883 19.4898 8.41811 19.1699 8.26522C18.43 7.91159 17.57 7.91159 16.8301 8.26522C16.5102 8.4181 16.2043 8.67883 15.5924 9.20027ZM22.3735 15.8631C22.6913 15.5453 22.6913 15.03 22.3735 14.7122C22.0557 14.3943 21.5403 14.3943 21.2225 14.7122L16.3723 19.5624L14.7775 17.9676C14.4596 17.6498 13.9443 17.6498 13.6265 17.9676C13.3087 18.2854 13.3087 18.8007 13.6265 19.1186L15.7968 21.2889C16.1146 21.6067 16.6299 21.6067 16.9478 21.2889L22.3735 15.8631Z" fill="#FF6D0E"/>
</svg>
