<svg width="87" height="79" viewBox="0 0 87 79" fill="none" xmlns="http://www.w3.org/2000/svg">
<rect y="2" width="86.9998" height="76.3157" rx="18.3158" fill="#123782"/>
<rect x="10.6841" y="50.842" width="65.6315" height="22.8947" rx="11.4473" fill="#397AFF"/>
<path d="M25.8512 36.2204H33.4468L37.273 41.1236L41.0141 45.4882L48.0712 54.3592H39.7387L34.8639 48.3791L32.3982 44.8363L25.8512 36.2204ZM28.9405 51.4683C25.1993 51.4683 21.8361 50.6181 18.8508 48.9176C15.8654 47.2171 13.5036 44.7513 11.7653 41.5203C10.027 38.2894 9.15784 34.3876 9.15784 29.8152C9.15784 25.2049 10.027 21.2843 11.7653 18.0533C13.5036 14.8034 15.8654 12.3377 18.8508 10.6561C21.8361 8.95554 25.1993 8.10529 28.9405 8.10529C32.6816 8.10529 36.0448 8.95554 39.0302 10.6561C42.0155 12.3377 44.3679 14.8034 46.0873 18.0533C47.8256 21.2843 48.6947 25.2049 48.6947 29.8152C48.6947 34.4065 47.8256 38.3177 46.0873 41.5487C44.3679 44.7797 42.0155 47.2454 39.0302 48.9459C36.0448 50.6275 32.6816 51.4683 28.9405 51.4683ZM28.9405 43.5893C31.1133 43.5893 33.0028 43.0603 34.6088 42.0022C36.2149 40.9441 37.4525 39.3947 38.3216 37.3541C39.2097 35.2946 39.6537 32.7816 39.6537 29.8152C39.6537 26.8298 39.2097 24.3074 38.3216 22.2479C37.4525 20.1884 36.2149 18.6296 34.6088 17.5715C33.0028 16.5134 31.1133 15.9843 28.9405 15.9843C26.7865 15.9843 24.9065 16.5134 23.3004 17.5715C21.6944 18.6296 20.4379 20.1884 19.531 22.2479C18.6429 24.3074 18.1989 26.8298 18.1989 29.8152C18.1989 32.7816 18.6429 35.2946 19.531 37.3541C20.4379 39.3947 21.6944 40.9441 23.3004 42.0022C24.9065 43.0603 26.7865 43.5893 28.9405 43.5893Z" fill="white"/>
<path d="M52.383 53.8729L51.098 48.7896L61.4259 26.3879L61.3703 26.1681L46.8347 29.8425L45.1121 23.028L69.8694 16.7698L71.2794 22.3477L61.7608 44.0187L61.8163 44.2385L76.4344 40.5433L78.157 47.3577L52.383 53.8729Z" fill="white"/>
<path d="M32.451 68.4736V58.4796H35.684C36.395 58.4796 36.9875 58.6159 37.4614 58.8887C37.9354 59.157 38.2932 59.5259 38.5346 59.9954C38.7806 60.4605 38.9035 60.9837 38.9035 61.565C38.9035 62.1463 38.7828 62.6717 38.5413 63.1412C38.2999 63.6063 37.9399 63.9752 37.4614 64.248C36.9875 64.5207 36.3994 64.6571 35.6974 64.6571H33.162V63.8388H35.6706C36.1937 63.8388 36.6275 63.7404 36.9718 63.5437C37.3161 63.3469 37.5732 63.0764 37.7432 62.7321C37.9176 62.3878 38.0047 61.9987 38.0047 61.565C38.0047 61.1268 37.9176 60.7377 37.7432 60.3979C37.5732 60.058 37.3139 59.792 36.9651 59.5997C36.6208 59.403 36.1848 59.3046 35.6571 59.3046H33.3632V68.4736H32.451ZM40.3459 68.4736V58.4796H43.5789C44.2899 58.4796 44.8824 58.6092 45.3564 58.8686C45.8304 59.1235 46.1881 59.4767 46.4296 59.9284C46.6755 60.38 46.7985 60.8965 46.7985 61.4778C46.7985 62.0591 46.6777 62.5733 46.4363 63.0205C46.1948 63.4632 45.8348 63.8097 45.3564 64.0601C44.8824 64.3106 44.2944 64.4358 43.5923 64.4358H40.849V63.604H43.5655C44.0887 63.604 44.5224 63.5168 44.8667 63.3424C45.211 63.1681 45.4682 62.9221 45.6381 62.6046C45.8125 62.2871 45.8997 61.9115 45.8997 61.4778C45.8997 61.0396 45.8125 60.6572 45.6381 60.3308C45.4637 60.0044 45.2043 59.7517 44.86 59.5729C44.5157 59.394 44.0797 59.3046 43.5521 59.3046H41.2581V68.4736H40.3459ZM46.1545 68.4736L43.7265 63.9595H44.7594L47.2143 68.4736H46.1545ZM52.2049 68.6078C51.3643 68.6078 50.6175 68.3976 49.9646 67.9773C49.3118 67.557 48.7998 66.9622 48.4286 66.1931C48.062 65.424 47.8786 64.5207 47.8786 63.4833C47.8786 62.4414 48.0642 61.5359 48.4353 60.7668C48.8065 59.9932 49.3162 59.3962 49.9646 58.9759C50.6175 58.5556 51.3643 58.3454 52.2049 58.3454C53.0456 58.3454 53.7901 58.5556 54.4385 58.9759C55.0869 59.3962 55.5944 59.9932 55.9611 60.7668C56.3322 61.5359 56.5178 62.4414 56.5178 63.4833C56.5178 64.5207 56.3322 65.424 55.9611 66.1931C55.5944 66.9622 55.0869 67.557 54.4385 67.9773C53.7901 68.3976 53.0456 68.6078 52.2049 68.6078ZM52.2049 67.7559C52.8578 67.7559 53.4436 67.586 53.9623 67.2462C54.481 66.9063 54.8901 66.4189 55.1897 65.784C55.4893 65.1445 55.6391 64.3776 55.6391 63.4833C55.6391 62.5845 55.4893 61.8154 55.1897 61.1759C54.8901 60.5365 54.481 60.0469 53.9623 59.707C53.4436 59.3672 52.8578 59.1973 52.2049 59.1973C51.5521 59.1973 50.964 59.3672 50.4409 59.707C49.9222 60.0469 49.5108 60.5365 49.2067 61.1759C48.9071 61.8154 48.7573 62.5845 48.7573 63.4833C48.7573 64.3732 48.9071 65.1378 49.2067 65.7772C49.5063 66.4167 49.9154 66.9063 50.4342 67.2462C50.9573 67.586 51.5476 67.7559 52.2049 67.7559Z" fill="white"/>
<rect y="1" width="86.9998" height="76.3157" rx="18.3158" fill="#123782"/>
<rect x="10.6841" y="49.842" width="65.6315" height="22.8947" rx="11.4473" fill="#397AFF"/>
<path d="M25.8512 35.2204H33.4468L37.273 40.1236L41.0141 44.4882L48.0712 53.3592H39.7387L34.8639 47.3791L32.3982 43.8363L25.8512 35.2204ZM28.9405 50.4683C25.1993 50.4683 21.8361 49.6181 18.8508 47.9176C15.8654 46.2171 13.5036 43.7513 11.7653 40.5203C10.027 37.2894 9.15784 33.3876 9.15784 28.8152C9.15784 24.2049 10.027 20.2843 11.7653 17.0533C13.5036 13.8034 15.8654 11.3377 18.8508 9.65605C21.8361 7.95554 25.1993 7.10529 28.9405 7.10529C32.6816 7.10529 36.0448 7.95554 39.0302 9.65605C42.0155 11.3377 44.3679 13.8034 46.0873 17.0533C47.8256 20.2843 48.6947 24.2049 48.6947 28.8152C48.6947 33.4065 47.8256 37.3177 46.0873 40.5487C44.3679 43.7797 42.0155 46.2454 39.0302 47.9459C36.0448 49.6275 32.6816 50.4683 28.9405 50.4683ZM28.9405 42.5893C31.1133 42.5893 33.0028 42.0603 34.6088 41.0022C36.2149 39.9441 37.4525 38.3947 38.3216 36.3541C39.2097 34.2946 39.6537 31.7816 39.6537 28.8152C39.6537 25.8298 39.2097 23.3074 38.3216 21.2479C37.4525 19.1884 36.2149 17.6296 34.6088 16.5715C33.0028 15.5134 31.1133 14.9843 28.9405 14.9843C26.7865 14.9843 24.9065 15.5134 23.3004 16.5715C21.6944 17.6296 20.4379 19.1884 19.531 21.2479C18.6429 23.3074 18.1989 25.8298 18.1989 28.8152C18.1989 31.7816 18.6429 34.2946 19.531 36.3541C20.4379 38.3947 21.6944 39.9441 23.3004 41.0022C24.9065 42.0603 26.7865 42.5893 28.9405 42.5893Z" fill="white"/>
<path d="M52.383 52.8729L51.098 47.7896L61.4259 25.3879L61.3703 25.1681L46.8347 28.8425L45.1121 22.028L69.8694 15.7698L71.2794 21.3477L61.7608 43.0187L61.8163 43.2385L76.4344 39.5433L78.157 46.3577L52.383 52.8729Z" fill="white"/>
<path d="M32.451 67.4736V57.4796H35.684C36.395 57.4796 36.9875 57.6159 37.4614 57.8887C37.9354 58.157 38.2932 58.5259 38.5346 58.9954C38.7806 59.4605 38.9035 59.9837 38.9035 60.565C38.9035 61.1463 38.7828 61.6717 38.5413 62.1412C38.2999 62.6063 37.9399 62.9752 37.4614 63.248C36.9875 63.5207 36.3994 63.6571 35.6974 63.6571H33.162V62.8388H35.6706C36.1937 62.8388 36.6275 62.7404 36.9718 62.5437C37.3161 62.3469 37.5732 62.0764 37.7432 61.7321C37.9176 61.3878 38.0047 60.9987 38.0047 60.565C38.0047 60.1268 37.9176 59.7377 37.7432 59.3979C37.5732 59.058 37.3139 58.792 36.9651 58.5997C36.6208 58.403 36.1848 58.3046 35.6571 58.3046H33.3632V67.4736H32.451ZM40.3459 67.4736V57.4796H43.5789C44.2899 57.4796 44.8824 57.6092 45.3564 57.8686C45.8304 58.1235 46.1881 58.4767 46.4296 58.9284C46.6755 59.38 46.7985 59.8965 46.7985 60.4778C46.7985 61.0591 46.6777 61.5733 46.4363 62.0205C46.1948 62.4632 45.8348 62.8097 45.3564 63.0601C44.8824 63.3106 44.2944 63.4358 43.5923 63.4358H40.849V62.604H43.5655C44.0887 62.604 44.5224 62.5168 44.8667 62.3424C45.211 62.1681 45.4682 61.9221 45.6381 61.6046C45.8125 61.2871 45.8997 60.9115 45.8997 60.4778C45.8997 60.0396 45.8125 59.6572 45.6381 59.3308C45.4637 59.0044 45.2043 58.7517 44.86 58.5729C44.5157 58.394 44.0797 58.3046 43.5521 58.3046H41.2581V67.4736H40.3459ZM46.1545 67.4736L43.7265 62.9595H44.7594L47.2143 67.4736H46.1545ZM52.2049 67.6078C51.3643 67.6078 50.6175 67.3976 49.9646 66.9773C49.3118 66.557 48.7998 65.9622 48.4286 65.1931C48.062 64.424 47.8786 63.5207 47.8786 62.4833C47.8786 61.4414 48.0642 60.5359 48.4353 59.7668C48.8065 58.9932 49.3162 58.3962 49.9646 57.9759C50.6175 57.5556 51.3643 57.3454 52.2049 57.3454C53.0456 57.3454 53.7901 57.5556 54.4385 57.9759C55.0869 58.3962 55.5944 58.9932 55.9611 59.7668C56.3322 60.5359 56.5178 61.4414 56.5178 62.4833C56.5178 63.5207 56.3322 64.424 55.9611 65.1931C55.5944 65.9622 55.0869 66.557 54.4385 66.9773C53.7901 67.3976 53.0456 67.6078 52.2049 67.6078ZM52.2049 66.7559C52.8578 66.7559 53.4436 66.586 53.9623 66.2462C54.481 65.9063 54.8901 65.4189 55.1897 64.784C55.4893 64.1445 55.6391 63.3776 55.6391 62.4833C55.6391 61.5845 55.4893 60.8154 55.1897 60.1759C54.8901 59.5365 54.481 59.0469 53.9623 58.707C53.4436 58.3672 52.8578 58.1973 52.2049 58.1973C51.5521 58.1973 50.964 58.3672 50.4409 58.707C49.9222 59.0469 49.5108 59.5365 49.2067 60.1759C48.9071 60.8154 48.7573 61.5845 48.7573 62.4833C48.7573 63.3732 48.9071 64.1378 49.2067 64.7772C49.5063 65.4167 49.9154 65.9063 50.4342 66.2462C50.9573 66.586 51.5476 66.7559 52.2049 66.7559Z" fill="white"/>
<rect width="86.9998" height="76.3157" rx="18.3158" fill="#0F5EFF"/>
<rect x="10.6841" y="48.842" width="65.6315" height="22.8947" rx="11.4473" fill="#397AFF"/>
<path d="M25.8512 34.2204H33.4468L37.273 39.1236L41.0141 43.4882L48.0712 52.3592H39.7387L34.8639 46.3791L32.3982 42.8363L25.8512 34.2204ZM28.9405 49.4683C25.1993 49.4683 21.8361 48.6181 18.8508 46.9176C15.8654 45.2171 13.5036 42.7513 11.7653 39.5203C10.027 36.2894 9.15784 32.3876 9.15784 27.8152C9.15784 23.2049 10.027 19.2843 11.7653 16.0533C13.5036 12.8034 15.8654 10.3377 18.8508 8.65605C21.8361 6.95554 25.1993 6.10529 28.9405 6.10529C32.6816 6.10529 36.0448 6.95554 39.0302 8.65605C42.0155 10.3377 44.3679 12.8034 46.0873 16.0533C47.8256 19.2843 48.6947 23.2049 48.6947 27.8152C48.6947 32.4065 47.8256 36.3177 46.0873 39.5487C44.3679 42.7797 42.0155 45.2454 39.0302 46.9459C36.0448 48.6275 32.6816 49.4683 28.9405 49.4683ZM28.9405 41.5893C31.1133 41.5893 33.0028 41.0603 34.6088 40.0022C36.2149 38.9441 37.4525 37.3947 38.3216 35.3541C39.2097 33.2946 39.6537 30.7816 39.6537 27.8152C39.6537 24.8298 39.2097 22.3074 38.3216 20.2479C37.4525 18.1884 36.2149 16.6296 34.6088 15.5715C33.0028 14.5134 31.1133 13.9843 28.9405 13.9843C26.7865 13.9843 24.9065 14.5134 23.3004 15.5715C21.6944 16.6296 20.4379 18.1884 19.531 20.2479C18.6429 22.3074 18.1989 24.8298 18.1989 27.8152C18.1989 30.7816 18.6429 33.2946 19.531 35.3541C20.4379 37.3947 21.6944 38.9441 23.3004 40.0022C24.9065 41.0603 26.7865 41.5893 28.9405 41.5893Z" fill="white"/>
<path d="M52.383 51.8729L51.098 46.7896L61.4259 24.3879L61.3703 24.1681L46.8347 27.8425L45.1121 21.028L69.8694 14.7698L71.2794 20.3477L61.7608 42.0187L61.8163 42.2385L76.4344 38.5433L78.157 45.3577L52.383 51.8729Z" fill="white"/>
<path d="M32.451 66.4736V56.4796H35.684C36.395 56.4796 36.9875 56.6159 37.4614 56.8887C37.9354 57.157 38.2932 57.5259 38.5346 57.9954C38.7806 58.4605 38.9035 58.9837 38.9035 59.565C38.9035 60.1463 38.7828 60.6717 38.5413 61.1412C38.2999 61.6063 37.9399 61.9752 37.4614 62.248C36.9875 62.5207 36.3994 62.6571 35.6974 62.6571H33.162V61.8388H35.6706C36.1937 61.8388 36.6275 61.7404 36.9718 61.5437C37.3161 61.3469 37.5732 61.0764 37.7432 60.7321C37.9176 60.3878 38.0047 59.9987 38.0047 59.565C38.0047 59.1268 37.9176 58.7377 37.7432 58.3979C37.5732 58.058 37.3139 57.792 36.9651 57.5997C36.6208 57.403 36.1848 57.3046 35.6571 57.3046H33.3632V66.4736H32.451ZM40.3459 66.4736V56.4796H43.5789C44.2899 56.4796 44.8824 56.6092 45.3564 56.8686C45.8304 57.1235 46.1881 57.4767 46.4296 57.9284C46.6755 58.38 46.7985 58.8965 46.7985 59.4778C46.7985 60.0591 46.6777 60.5733 46.4363 61.0205C46.1948 61.4632 45.8348 61.8097 45.3564 62.0601C44.8824 62.3106 44.2944 62.4358 43.5923 62.4358H40.849V61.604H43.5655C44.0887 61.604 44.5224 61.5168 44.8667 61.3424C45.211 61.1681 45.4682 60.9221 45.6381 60.6046C45.8125 60.2871 45.8997 59.9115 45.8997 59.4778C45.8997 59.0396 45.8125 58.6572 45.6381 58.3308C45.4637 58.0044 45.2043 57.7517 44.86 57.5729C44.5157 57.394 44.0797 57.3046 43.5521 57.3046H41.2581V66.4736H40.3459ZM46.1545 66.4736L43.7265 61.9595H44.7594L47.2143 66.4736H46.1545ZM52.2049 66.6078C51.3643 66.6078 50.6175 66.3976 49.9646 65.9773C49.3118 65.557 48.7998 64.9622 48.4286 64.1931C48.062 63.424 47.8786 62.5207 47.8786 61.4833C47.8786 60.4414 48.0642 59.5359 48.4353 58.7668C48.8065 57.9932 49.3162 57.3962 49.9646 56.9759C50.6175 56.5556 51.3643 56.3454 52.2049 56.3454C53.0456 56.3454 53.7901 56.5556 54.4385 56.9759C55.0869 57.3962 55.5944 57.9932 55.9611 58.7668C56.3322 59.5359 56.5178 60.4414 56.5178 61.4833C56.5178 62.5207 56.3322 63.424 55.9611 64.1931C55.5944 64.9622 55.0869 65.557 54.4385 65.9773C53.7901 66.3976 53.0456 66.6078 52.2049 66.6078ZM52.2049 65.7559C52.8578 65.7559 53.4436 65.586 53.9623 65.2462C54.481 64.9063 54.8901 64.4189 55.1897 63.784C55.4893 63.1445 55.6391 62.3776 55.6391 61.4833C55.6391 60.5845 55.4893 59.8154 55.1897 59.1759C54.8901 58.5365 54.481 58.0469 53.9623 57.707C53.4436 57.3672 52.8578 57.1973 52.2049 57.1973C51.5521 57.1973 50.964 57.3672 50.4409 57.707C49.9222 58.0469 49.5108 58.5365 49.2067 59.1759C48.9071 59.8154 48.7573 60.5845 48.7573 61.4833C48.7573 62.3732 48.9071 63.1378 49.2067 63.7772C49.5063 64.4167 49.9154 64.9063 50.4342 65.2462C50.9573 65.586 51.5476 65.7559 52.2049 65.7559Z" fill="white"/>
</svg>
