<svg width="56" height="80" viewBox="0 0 56 80" fill="none" xmlns="http://www.w3.org/2000/svg">
<path d="M27.9416 40.8684C28.3147 40.2785 28.5637 39.7706 28.6886 39.3446C28.8134 38.9186 28.8068 38.5037 28.6687 38.1C28.4926 37.5853 28.2015 37.2452 27.7954 37.0797C27.396 36.9007 26.9389 36.8993 26.4242 37.0754C25.9296 37.2445 25.5829 37.5492 25.384 37.9892C25.1951 38.4259 25.1974 38.9268 25.3907 39.4919L25.4477 39.6585L23.2526 40.4094L23.1542 40.1218C22.9263 39.4557 22.8756 38.7966 23.002 38.1446C23.1386 37.4891 23.4477 36.9099 23.9295 36.4068C24.4078 35.8937 25.0305 35.506 25.7975 35.2436C27.0389 34.8189 28.1013 34.7937 28.9846 35.1679C29.878 35.5387 30.4991 36.2337 30.8478 37.2531C31.0964 37.9797 31.1305 38.6727 30.9502 39.3318C30.7765 39.9775 30.4198 40.7308 29.8801 41.5919L28.1662 44.3427L32.7835 42.7631L33.4102 44.5949L25.644 47.2517L25.0692 45.5713L27.9416 40.8684Z" fill="#1A1C20"/>
<rect x="0.126005" y="-0.368691" width="2.58418" height="2.58418" transform="matrix(0.7706 -0.273916 -0.348014 -0.962578 8.61457 31.1539)" fill="white" stroke="#70F9E7" stroke-width="0.596349"/>
<path d="M10.6115 29.4414L34.299 21.0215" stroke="#70F9E7" stroke-width="0.795132"/>
<rect x="0.126005" y="-0.368691" width="2.58418" height="2.58418" transform="matrix(0.7706 -0.273916 -0.348014 -0.962578 34.753 21.8629)" fill="white" stroke="#70F9E7" stroke-width="0.596349"/>
<path d="M9.93945 31.4075L19.8007 58.683" stroke="#70F9E7" stroke-width="0.795132"/>
<path d="M36.0779 22.1162L45.9392 49.3918" stroke="#70F9E7" stroke-width="0.795132"/>
<rect x="0.126005" y="-0.368691" width="2.58418" height="2.58418" transform="matrix(0.7706 -0.273916 -0.348014 -0.962578 19.5828 61.4911)" fill="white" stroke="#70F9E7" stroke-width="0.596349"/>
<path d="M21.5796 59.7783L45.2671 51.3584" stroke="#70F9E7" stroke-width="0.795132"/>
<rect x="0.126005" y="-0.368691" width="2.58418" height="2.58418" transform="matrix(0.7706 -0.273916 -0.348014 -0.962578 45.7212 52.2001)" fill="white" stroke="#70F9E7" stroke-width="0.596349"/>
<rect width="36.5017" height="33.1199" transform="matrix(0.7706 -0.273916 0.348014 0.962578 8.1122 29.4592)" fill="#70F9E7" fill-opacity="0.24"/>
</svg>
