<svg width="340" height="218" viewBox="0 0 340 218" fill="none" xmlns="http://www.w3.org/2000/svg">
<rect width="340" height="218" rx="39" fill="#EDEDED" fill-opacity="0.37"/>
<path fill-rule="evenodd" clip-rule="evenodd" d="M161.343 87.8563C162.022 86.4263 163.479 85.4375 165.166 85.4375H174.833C176.521 85.4375 177.978 86.4263 178.656 87.8563C180.308 87.8683 181.596 87.9442 182.745 88.3933C184.118 88.93 185.312 89.8423 186.191 91.0258C187.078 92.2199 187.494 93.7503 188.067 95.8568L189.86 102.433L190.538 104.466C190.557 104.49 190.576 104.514 190.595 104.539C192.772 107.327 191.736 111.474 189.662 119.767C188.343 125.042 187.684 127.679 185.717 129.215C183.751 130.75 181.032 130.75 175.595 130.75H164.404C158.967 130.75 156.249 130.75 154.282 129.215C152.315 127.679 151.656 125.042 150.337 119.767C148.264 111.474 147.227 107.327 149.404 104.539C149.423 104.514 149.442 104.49 149.462 104.466L150.139 102.433L151.932 95.8568C152.505 93.7503 152.922 92.2199 153.808 91.0258C154.687 89.8423 155.882 88.93 157.255 88.3933C158.404 87.9442 159.691 87.8683 161.343 87.8563ZM161.347 91.4847C159.747 91.5009 159.106 91.562 158.574 91.7696C157.835 92.0586 157.192 92.5498 156.719 93.1871C156.293 93.7602 156.043 94.5609 155.34 97.1391L153.964 102.187C156.429 101.75 159.795 101.75 164.404 101.75H175.595C180.204 101.75 183.571 101.75 186.036 102.187L184.659 97.1391C183.956 94.5609 183.707 93.7602 183.281 93.1871C182.808 92.5498 182.165 92.0586 181.425 91.7696C180.894 91.562 180.252 91.5009 178.653 91.4847C177.973 92.9106 176.518 93.8958 174.833 93.8958H165.166C163.482 93.8958 162.027 92.9106 161.347 91.4847Z" fill="#105EFE"/>
</svg>
