<svg width="340" height="218" viewBox="0 0 340 218" fill="none" xmlns="http://www.w3.org/2000/svg">
<rect width="340" height="218" rx="39" fill="#EDEDED" fill-opacity="0.54"/>
<path d="M161.566 84.833H178.434C178.996 84.8329 179.427 84.8328 179.803 84.8696C182.481 85.1315 184.672 86.7412 185.601 88.9094H154.399C155.328 86.7412 157.519 85.1315 160.197 84.8696C160.573 84.8328 161.004 84.8329 161.566 84.833Z" fill="#105EFE"/>
<path d="M156.251 91.4139C152.89 91.4139 150.134 93.4433 149.215 96.1355C149.195 96.1917 149.177 96.2481 149.16 96.3048C150.122 96.0134 151.123 95.823 152.137 95.6931C154.748 95.3583 158.047 95.3585 161.88 95.3587H178.536C182.369 95.3585 185.669 95.3583 188.279 95.6931C189.293 95.823 190.295 96.0134 191.257 96.3048C191.239 96.2481 191.221 96.1917 191.202 96.1355C190.282 93.4433 187.526 91.4139 184.166 91.4139H156.251Z" fill="#105EFE"/>
<path fill-rule="evenodd" clip-rule="evenodd" d="M178.042 98.2263H161.958C153.803 98.2263 149.725 98.2263 147.434 100.611C145.143 102.996 145.682 106.68 146.76 114.049L147.782 121.037C148.628 126.816 149.05 129.706 151.219 131.436C153.387 133.166 156.585 133.166 162.981 133.166H177.02C183.416 133.166 186.613 133.166 188.782 131.436C190.95 129.706 191.373 126.816 192.218 121.037L193.24 114.049C194.318 106.681 194.857 102.996 192.566 100.611C190.276 98.2263 186.198 98.2263 178.042 98.2263ZM176.238 118.169C177.588 117.332 177.588 115.167 176.238 114.33L168.09 109.279C166.779 108.466 165.167 109.524 165.167 111.199V121.301C165.167 122.975 166.779 124.033 168.09 123.22L176.238 118.169Z" fill="#105EFE"/>
</svg>
