<svg width="57" height="52" viewBox="0 0 57 52" fill="none" xmlns="http://www.w3.org/2000/svg">
<rect y="-0.00488281" width="57" height="52" rx="11" fill="white"/>
<rect x="0.5" y="0.495117" width="56" height="51" rx="10.5" stroke="black" stroke-opacity="0.07"/>
<path d="M39.456 20.779C39.205 21.5813 38.8378 22.3424 38.366 23.038L38.385 23.008C37.937 23.7547 37.402 24.6174 36.78 25.596C36.2467 26.3687 35.9643 26.7687 35.933 26.796C35.7913 26.975 35.6992 27.1882 35.666 27.414L35.665 27.421C35.6907 27.6247 35.7853 27.8135 35.933 27.956L36.333 28.402C38.473 30.6014 39.6767 32.1174 39.944 32.95C39.9947 33.0868 40.011 33.234 39.9915 33.3785C39.9719 33.5231 39.9172 33.6606 39.832 33.779L39.834 33.776C39.7331 33.8796 39.6104 33.9593 39.4747 34.0093C39.3391 34.0593 39.194 34.0783 39.05 34.065H39.054H36.418C36.081 34.065 35.771 33.947 35.528 33.751L35.531 33.753C35.1844 33.4683 34.8659 33.1508 34.58 32.805L34.571 32.793C34.1103 32.2724 33.7017 31.834 33.345 31.478C32.157 30.3487 31.2803 29.784 30.715 29.784C30.5326 29.7687 30.3505 29.8163 30.199 29.919L30.202 29.917C30.1372 29.9985 30.0897 30.0923 30.0622 30.1927C30.0347 30.293 30.0278 30.3979 30.042 30.501V30.497C30.0041 30.9637 29.9914 31.432 30.004 31.9V31.883V33.042C30.0324 33.1805 30.0227 33.324 29.9758 33.4574C29.9289 33.5907 29.8468 33.7088 29.738 33.799L29.737 33.8C29.2303 34.0279 28.673 34.1199 28.12 34.067L28.133 34.068C26.619 34.0432 25.1407 33.6047 23.858 32.8L23.893 32.82C22.4128 31.9288 21.1444 30.726 20.176 29.295L20.149 29.253C19.2084 27.9984 18.3815 26.6625 17.678 25.261L17.608 25.107C17.1401 24.1991 16.7284 23.2634 16.375 22.305L16.315 22.12C16.152 21.6223 16.048 21.1071 16.005 20.585L16.003 20.56C16.003 20.0547 16.3003 19.802 16.895 19.802H19.525C19.7909 19.7814 20.0547 19.8618 20.264 20.027L20.262 20.025C20.462 20.244 20.61 20.513 20.683 20.813L20.686 20.825C21.1204 22.0694 21.651 23.278 22.273 24.44L22.206 24.303C22.6557 25.2159 23.1997 26.0793 23.829 26.879L23.806 26.848C24.3393 27.5027 24.7553 27.83 25.054 27.83L25.086 27.831C25.1563 27.8312 25.2254 27.8127 25.2863 27.7776C25.3473 27.7425 25.3978 27.6919 25.433 27.631L25.434 27.629C25.5292 27.3783 25.5671 27.1094 25.545 26.842V26.848V22.969C25.5266 22.5292 25.4177 22.0979 25.225 21.702L25.233 21.721C25.1158 21.4697 24.9644 21.2358 24.783 21.026L24.786 21.03C24.6184 20.8626 24.5093 20.6455 24.475 20.411L24.474 20.405C24.474 20.235 24.552 20.082 24.674 19.982L24.675 19.981C24.8007 19.8662 24.9648 19.8027 25.135 19.803H29.289C29.3933 19.7905 29.4991 19.8043 29.5967 19.843C29.6943 19.8818 29.7807 19.9444 29.848 20.025L29.849 20.026C29.9753 20.2594 30.0306 20.5246 30.008 20.789V20.784V25.957C29.9925 26.161 30.04 26.3649 30.144 26.541L30.142 26.537C30.1786 26.5918 30.2281 26.6368 30.2862 26.6678C30.3443 26.6989 30.4091 26.7151 30.475 26.715C30.6436 26.7039 30.8072 26.648 30.947 26.553L30.944 26.555C31.2147 26.3684 31.451 26.1547 31.653 25.914L31.657 25.909C32.2748 25.21 32.8287 24.457 33.312 23.659L33.351 23.589C33.695 23.019 34.067 22.317 34.404 21.596L34.466 21.449L34.912 20.557C34.9902 20.3262 35.1416 20.1272 35.3432 19.9903C35.5448 19.8533 35.7856 19.7858 36.029 19.798H36.026H38.657C39.3677 19.798 39.6343 20.125 39.457 20.779H39.456Z" fill="#108BFE"/>
</svg>
